<mxfile host="app.diagrams.net" modified="2022-03-18T02:12:08.464Z" agent="5.0 (Windows NT 10.0; Win64; x64) AppleWebKit/537.36 (KHTML, like Gecko) Chrome/99.0.4844.51 Safari/537.36 Edg/99.0.1150.39" etag="D8u5LdEAUr6ih7qunPZ6" version="17.1.3" type="github">
  <diagram id="-sU3lRYDqtlFAzhdu7HP" name="Page-1">
    <mxGraphModel dx="933" dy="426" grid="1" gridSize="10" guides="1" tooltips="1" connect="1" arrows="1" fold="1" page="1" pageScale="1" pageWidth="850" pageHeight="1100" math="0" shadow="0">
      <root>
        <mxCell id="0" />
        <mxCell id="1" parent="0" />
        <mxCell id="ol4tRR3ZWzO9gdeLCyDH-3" value="" style="edgeStyle=orthogonalEdgeStyle;rounded=0;orthogonalLoop=1;jettySize=auto;html=1;" edge="1" parent="1" source="ol4tRR3ZWzO9gdeLCyDH-1" target="ol4tRR3ZWzO9gdeLCyDH-2">
          <mxGeometry relative="1" as="geometry" />
        </mxCell>
        <mxCell id="ol4tRR3ZWzO9gdeLCyDH-5" value="" style="edgeStyle=orthogonalEdgeStyle;rounded=0;orthogonalLoop=1;jettySize=auto;html=1;" edge="1" parent="1" source="ol4tRR3ZWzO9gdeLCyDH-1" target="ol4tRR3ZWzO9gdeLCyDH-4">
          <mxGeometry relative="1" as="geometry" />
        </mxCell>
        <mxCell id="ol4tRR3ZWzO9gdeLCyDH-7" value="" style="edgeStyle=orthogonalEdgeStyle;rounded=0;orthogonalLoop=1;jettySize=auto;html=1;" edge="1" parent="1" source="ol4tRR3ZWzO9gdeLCyDH-1" target="ol4tRR3ZWzO9gdeLCyDH-6">
          <mxGeometry relative="1" as="geometry">
            <Array as="points">
              <mxPoint x="270" y="70" />
              <mxPoint x="660" y="70" />
            </Array>
          </mxGeometry>
        </mxCell>
        <mxCell id="ol4tRR3ZWzO9gdeLCyDH-1" value="Deep Learning for Tabular Data" style="rounded=0;whiteSpace=wrap;html=1;" vertex="1" parent="1">
          <mxGeometry x="130" y="20" width="280" height="40" as="geometry" />
        </mxCell>
        <mxCell id="ol4tRR3ZWzO9gdeLCyDH-15" value="" style="edgeStyle=orthogonalEdgeStyle;rounded=0;orthogonalLoop=1;jettySize=auto;html=1;" edge="1" parent="1" source="ol4tRR3ZWzO9gdeLCyDH-2" target="ol4tRR3ZWzO9gdeLCyDH-14">
          <mxGeometry relative="1" as="geometry" />
        </mxCell>
        <mxCell id="ol4tRR3ZWzO9gdeLCyDH-2" value="Data Transformation/Encoding&amp;nbsp; Techniques" style="ellipse;whiteSpace=wrap;html=1;rounded=0;fillColor=#ffe6cc;strokeColor=#d79b00;" vertex="1" parent="1">
          <mxGeometry x="20" y="140" width="160" height="60" as="geometry" />
        </mxCell>
        <mxCell id="ol4tRR3ZWzO9gdeLCyDH-4" value="Specialized end-to-end DNN Architectures for tabular data" style="ellipse;whiteSpace=wrap;html=1;rounded=0;fillColor=#ffe6cc;strokeColor=#d79b00;" vertex="1" parent="1">
          <mxGeometry x="330" y="120" width="150" height="80" as="geometry" />
        </mxCell>
        <mxCell id="ol4tRR3ZWzO9gdeLCyDH-6" value="Regularization Models" style="ellipse;whiteSpace=wrap;html=1;rounded=0;fillColor=#ffe6cc;strokeColor=#d79b00;" vertex="1" parent="1">
          <mxGeometry x="600" y="150" width="120" height="60" as="geometry" />
        </mxCell>
        <mxCell id="ol4tRR3ZWzO9gdeLCyDH-18" value="" style="edgeStyle=orthogonalEdgeStyle;rounded=0;orthogonalLoop=1;jettySize=auto;html=1;exitX=1;exitY=0.5;exitDx=0;exitDy=0;" edge="1" parent="1" source="ol4tRR3ZWzO9gdeLCyDH-2" target="ol4tRR3ZWzO9gdeLCyDH-17">
          <mxGeometry relative="1" as="geometry">
            <mxPoint x="330" y="340" as="sourcePoint" />
            <Array as="points">
              <mxPoint x="290" y="170" />
              <mxPoint x="290" y="320" />
            </Array>
          </mxGeometry>
        </mxCell>
        <mxCell id="ol4tRR3ZWzO9gdeLCyDH-24" value="" style="edgeStyle=orthogonalEdgeStyle;rounded=0;orthogonalLoop=1;jettySize=auto;html=1;" edge="1" parent="1" source="ol4tRR3ZWzO9gdeLCyDH-14" target="ol4tRR3ZWzO9gdeLCyDH-23">
          <mxGeometry relative="1" as="geometry" />
        </mxCell>
        <mxCell id="ol4tRR3ZWzO9gdeLCyDH-14" value="&lt;b&gt;Deterministic Techniques&lt;/b&gt;- to be used before training the&amp;nbsp; model" style="whiteSpace=wrap;html=1;fillColor=#f5f5f5;strokeColor=#666666;rounded=0;align=left;fontColor=#333333;" vertex="1" parent="1">
          <mxGeometry x="10" y="290" width="160" height="50" as="geometry" />
        </mxCell>
        <mxCell id="ol4tRR3ZWzO9gdeLCyDH-26" value="" style="edgeStyle=orthogonalEdgeStyle;rounded=0;orthogonalLoop=1;jettySize=auto;html=1;" edge="1" parent="1" source="ol4tRR3ZWzO9gdeLCyDH-17" target="ol4tRR3ZWzO9gdeLCyDH-25">
          <mxGeometry relative="1" as="geometry" />
        </mxCell>
        <mxCell id="ol4tRR3ZWzO9gdeLCyDH-17" value="&lt;b&gt;Automatic Transformation&lt;/b&gt; techniques - more complex &amp;amp; part of the architectures, less interpretable" style="whiteSpace=wrap;html=1;fillColor=#f5f5f5;strokeColor=#666666;rounded=0;align=left;verticalAlign=top;fontColor=#333333;" vertex="1" parent="1">
          <mxGeometry x="300" y="280" width="190" height="80" as="geometry" />
        </mxCell>
        <mxCell id="ol4tRR3ZWzO9gdeLCyDH-23" value="Single Dimensional Techniques.&lt;br&gt;transform each feature independently&amp;nbsp;&lt;br&gt;e.g.&lt;br&gt;One hot encoding&lt;br&gt;Label encoding&lt;br&gt;Binary encoding&lt;br&gt;Hash based encoding&lt;br&gt;Leave one out encoding" style="rounded=0;whiteSpace=wrap;html=1;align=left;" vertex="1" parent="1">
          <mxGeometry x="10" y="411" width="210" height="129" as="geometry" />
        </mxCell>
        <mxCell id="ol4tRR3ZWzO9gdeLCyDH-28" value="" style="edgeStyle=orthogonalEdgeStyle;rounded=0;orthogonalLoop=1;jettySize=auto;html=1;" edge="1" parent="1" source="ol4tRR3ZWzO9gdeLCyDH-25" target="ol4tRR3ZWzO9gdeLCyDH-27">
          <mxGeometry relative="1" as="geometry" />
        </mxCell>
        <mxCell id="ol4tRR3ZWzO9gdeLCyDH-25" value="&lt;b&gt;Multi-dimensional encoding &lt;/b&gt;- map an entire data record to another representation." style="whiteSpace=wrap;html=1;align=left;verticalAlign=top;fillColor=#f5f5f5;strokeColor=#666666;fontColor=#333333;rounded=0;" vertex="1" parent="1">
          <mxGeometry x="322.5" y="430" width="197.5" height="60" as="geometry" />
        </mxCell>
        <mxCell id="ol4tRR3ZWzO9gdeLCyDH-27" value="1. &lt;b&gt;Transform&amp;nbsp; raw data&lt;/b&gt;(&lt;i&gt;categorical features &amp;amp; numerical features&lt;/i&gt;)&amp;nbsp; &lt;b&gt;into new homogenous and informative representations entirely &lt;/b&gt;using approaches such as &lt;a href=&quot;https://www.semanticscholar.org/paper/1be6ddac2e262ff915c9fc2eacbf615082240219&quot;&gt;VIME&lt;b&gt;&amp;nbsp;&lt;/b&gt;&lt;/a&gt;&lt;br&gt;&lt;br&gt;kind of Specialized architectures" style="whiteSpace=wrap;html=1;align=left;verticalAlign=top;fillColor=#f5f5f5;strokeColor=#666666;fontColor=#333333;rounded=0;" vertex="1" parent="1">
          <mxGeometry x="286.25" y="550" width="270" height="100" as="geometry" />
        </mxCell>
      </root>
    </mxGraphModel>
  </diagram>
</mxfile>
